<svg width="32" height="32" viewBox="0 0 32 32" fill="none" xmlns="http://www.w3.org/2000/svg">
  <!-- Background -->
  <rect width="32" height="32" rx="6" fill="#ffffff"/>
  
  <!-- EB Letters simplified -->
  <g transform="translate(16, 16)">
    <!-- E -->
    <g transform="translate(-8, 0)">
      <rect x="-4" y="-6" width="8" height="2" fill="#e91e63"/>
      <rect x="-4" y="-6" width="2" height="12" fill="#e91e63"/>
      <rect x="-4" y="-1" width="6" height="2" fill="#e91e63"/>
      <rect x="-4" y="4" width="8" height="2" fill="#e91e63"/>
    </g>
    
    <!-- B -->
    <g transform="translate(4, 0)">
      <rect x="-2" y="-6" width="2" height="12" fill="#e91e63"/>
      <rect x="0" y="-6" width="4" height="2" fill="#e91e63"/>
      <rect x="0" y="-1" width="4" height="2" fill="#e91e63"/>
      <rect x="0" y="4" width="4" height="2" fill="#e91e63"/>
      <rect x="4" y="-4" width="2" height="2" fill="#e91e63"/>
      <rect x="4" y="2" width="2" height="2" fill="#e91e63"/>
    </g>
    
    <!-- Small decorative flowers -->
    <circle cx="0" cy="-10" r="1.5" fill="#e91e63"/>
    <circle cx="-3" cy="-8" r="1" fill="#e91e63"/>
    <circle cx="3" cy="-8" r="1" fill="#e91e63"/>
    <circle cx="0" cy="10" r="1.5" fill="#e91e63"/>
    <circle cx="-3" cy="8" r="1" fill="#e91e63"/>
    <circle cx="3" cy="8" r="1" fill="#e91e63"/>
  </g>
</svg>